<?xml version="1.0" standalone="no"?><!DOCTYPE svg PUBLIC "-//W3C//DTD SVG 1.1//EN" "http://www.w3.org/Graphics/SVG/1.1/DTD/svg11.dtd"><svg t="1552921822826" class="icon" style="" viewBox="0 0 1024 1024" version="1.1" xmlns="http://www.w3.org/2000/svg" p-id="11649" xmlns:xlink="http://www.w3.org/1999/xlink" width="200" height="200"><defs><style type="text/css"></style></defs><path d="M199.1424 896.9344H96.72704c-24.7424 0-44.8-20.0576-44.8-44.8V440.64896c0-117.86752 95.89248-213.76 213.76-213.76h69.09568c24.7424 0 44.8 20.0576 44.8 44.8s-20.0576 44.8-44.8 44.8h-69.09568c-68.46208 0-124.16 55.69792-124.16 124.16V807.3344h57.61536c24.7424 0 44.8 20.0576 44.8 44.8s-20.0576 44.8-44.8 44.8z" fill="" p-id="11650"></path><path d="M277.536 971.82848c-67.94624 0-123.22432-55.27936-123.22432-123.2256s55.27808-123.22432 123.22432-123.22432c67.94624 0 123.22432 55.27808 123.22432 123.22432s-55.27808 123.2256-123.22432 123.2256z m0-156.84864c-18.5408 0-33.62432 15.08352-33.62432 33.62432 0 18.5408 15.08352 33.6256 33.62432 33.6256 18.53952 0 33.62432-15.08352 33.62432-33.6256 0-18.5408-15.08352-33.62432-33.62432-33.62432z" fill="" p-id="11651"></path><path d="M465.85856 896.9344h-104.31872c-24.7424 0-44.8-20.0576-44.8-44.8s20.0576-44.8 44.8-44.8h59.51872V152.0128c0-55.05152 44.78848-99.84 99.84-99.84h406.37312c24.7424 0 44.8 20.0576 44.8 44.8s-20.0576 44.8-44.8 44.8H520.89856c-5.55136 0-10.24 4.68992-10.24 10.24v700.1216c0 24.74368-20.0576 44.8-44.8 44.8z" fill="" p-id="11652"></path><path d="M771.7248 274.88256H569.8048c-24.7424 0-44.8-20.0576-44.8-44.8s20.0576-44.8 44.8-44.8h201.92c24.7424 0 44.8 20.0576 44.8 44.8s-20.0576 44.8-44.8 44.8z" fill="" p-id="11653"></path><path d="M706.336 415.68256H569.8048c-24.7424 0-44.8-20.0576-44.8-44.8s20.0576-44.8 44.8-44.8h136.5312c24.7424 0 44.8 20.0576 44.8 44.8s-20.0576 44.8-44.8 44.8z" fill="" p-id="11654"></path><path d="M761.13024 948.66816c-126.67136 0-229.72544-103.05536-229.72544-229.72672S634.45888 489.216 761.13024 489.216s229.72672 103.05408 229.72672 229.72544-103.05536 229.72672-229.72672 229.72672z m0-382.65088c-84.32384 0-152.92544 68.6016-152.92544 152.92544s68.6016 152.92672 152.92544 152.92672 152.92672-68.60288 152.92672-152.92672-68.60288-152.92544-152.92672-152.92544z" fill="" p-id="11655"></path><path d="M761.13024 757.34272c-21.20704 0-38.4-17.19296-38.4-38.4v-84.79488c0-21.20704 17.19296-38.4 38.4-38.4s38.4 17.19296 38.4 38.4v84.79488c0 21.20704-17.19296 38.4-38.4 38.4z" fill="" p-id="11656"></path><path d="M847.22688 757.34272h-86.09792c-21.20704 0-38.4-17.19296-38.4-38.4s17.19296-38.4 38.4-38.4h86.09792c21.20704 0 38.4 17.19296 38.4 38.4s-17.19168 38.4-38.4 38.4z" fill="" p-id="11657"></path></svg>