<?xml version="1.0" standalone="no"?><!DOCTYPE svg PUBLIC "-//W3C//DTD SVG 1.1//EN" "http://www.w3.org/Graphics/SVG/1.1/DTD/svg11.dtd"><svg t="1552920493858" class="icon" style="" viewBox="0 0 1024 1024" version="1.1" xmlns="http://www.w3.org/2000/svg" p-id="2444" xmlns:xlink="http://www.w3.org/1999/xlink" width="200" height="200"><defs><style type="text/css"></style></defs><path d="M694.528 697.216c-36.832-15.36-124.288-45.536-178.08-61.408-4.576-1.44-5.312-1.664-5.312-20.768 0-15.776 6.496-31.648 12.8-45.088 6.848-14.592 14.976-39.168 17.888-61.184 8.16-9.472 19.264-28.16 26.432-63.776 6.272-31.392 3.328-42.816-0.832-53.536-0.416-1.12-0.896-2.24-1.216-3.36-1.568-7.36 0.576-45.6 5.984-75.264 3.712-20.352-0.96-63.648-28.992-99.456-17.696-22.624-51.552-50.432-113.408-54.272l-33.92 0.032c-60.8 3.84-94.72 31.616-112.416 54.24-28.032 35.808-32.672 79.104-28.96 99.456 5.408 29.696 7.552 67.936 6.016 75.136-0.32 1.248-0.8 2.368-1.248 3.52-4.128 10.72-7.072 22.144-0.8 53.536 7.104 35.616 18.24 54.304 26.432 63.776 2.88 22.016 11.008 46.592 17.888 61.184 5.024 10.688 7.392 25.216 7.392 45.792 0 19.104-0.736 19.328-5.024 20.672-55.648 16.416-144.16 48.416-177.184 62.88-26.176 11.232-32.544 31.36-32.544 49.536s0 72.032 0 83.936c0 11.872 7.04 32.192 32.544 32.192 19.616 0 176.576 0 247.872 0 21.376 0 35.136 0 35.136 0l6.144 0c0 0 13.984 0 35.68 0 71.584 0 228.32 0 247.904 0 25.472 0 32.544-20.288 32.544-32.192s0-65.76 0-83.936-12.544-40.384-38.688-51.616zM699.424 831.36l-570.464 0 0-82.528c0-10.176 2.976-14.72 12.448-18.784 31.776-13.92 119.712-45.632 173.856-61.632 28.448-9.024 28.448-34.24 28.448-52.672 0-25.632-3.328-44.704-10.592-60.096-5.504-11.712-12.544-32.704-14.976-51.232l-1.312-9.984-6.592-7.616c-3.616-4.16-12.64-17.216-18.88-48.416-4.896-24.288-2.72-29.92-0.992-34.432 0.992-2.432 1.888-4.864 2.592-7.584l0.192-0.704 0.128-0.704c3.392-15.84-1.184-62.784-5.792-88.16-2.144-11.68 0.544-44.832 22.432-72.736 13.344-17.088 39.296-38.08 87.072-41.376l31.744-0.032c39.008 2.656 68.64 16.576 88.096 41.408 21.824 27.904 24.48 61.088 22.368 72.8-4.736 26.048-9.184 72.224-5.728 88.256l0.256 1.248 0.352 1.216c0.48 1.728 1.12 3.456 1.76 5.152l0.32 0.832 0 0.064c1.888 4.896 4.064 10.432-0.8 34.784-6.272 31.168-15.328 44.288-18.944 48.48l-6.528 7.584-1.312 9.92c-2.464 18.496-9.504 39.584-15.008 51.296-7.904 16.8-16 37.024-16 59.392 0 18.464 0 43.744 29.376 52.96 52.512 15.52 139.04 45.312 174.336 60.064 13.376 5.728 18.368 15.776 18.368 20.768l-0.192 82.528z" p-id="2445"></path><path d="M840.864 478.88l87.744-87.744-23.776-23.744-87.712 87.744-87.744-87.744-23.744 23.744 87.744 87.744-87.744 87.744 23.744 23.744 87.744-87.744 87.744 87.744 23.744-23.744z" p-id="2446"></path></svg>