<?xml version="1.0" standalone="no"?><!DOCTYPE svg PUBLIC "-//W3C//DTD SVG 1.1//EN" "http://www.w3.org/Graphics/SVG/1.1/DTD/svg11.dtd"><svg t="1555000051026" class="icon" style="" viewBox="0 0 1024 1024" version="1.1" xmlns="http://www.w3.org/2000/svg" p-id="19192" xmlns:xlink="http://www.w3.org/1999/xlink" width="200" height="200"><defs><style type="text/css"></style></defs><path d="M824.832 188.672V529.066667a68.266667 68.266667 0 0 1-68.266667-68.266667V205.738667h-26.282666a34.133333 34.133333 0 0 1-34.133334-32.256 35.413333 35.413333 0 0 1 35.925334-36.010667h41.386666a51.2 51.2 0 0 1 51.370667 51.2zM210.432 854.272h234.069333a68.266667 68.266667 0 0 1 68.266667 68.266667H193.365333a51.2 51.2 0 0 1-51.2-51.2v-682.666667a51.2 51.2 0 0 1 51.2-51.2h43.178667a34.133333 34.133333 0 0 1 34.133333 32.256 35.413333 35.413333 0 0 1-35.925333 36.010667h-24.32z" fill="" p-id="19193"></path><path d="M424.192 137.557333m34.133333 0l50.090667 0q34.133333 0 34.133333 34.133334l0 0q0 34.133333-34.133333 34.133333l-50.090667 0q-34.133333 0-34.133333-34.133333l0 0q0-34.133333 34.133333-34.133334Z" fill="#FF7E00" p-id="19194"></path><path d="M312.064 70.485333m34.133333 0l0 0q34.133333 0 34.133334 34.133334l0 101.290666q0 34.133333-34.133334 34.133334l0 0q-34.133333 0-34.133333-34.133334l0-101.290666q0-34.133333 34.133333-34.133334Z" fill="#FF7E00" p-id="19195"></path><path d="M586.496 70.485333m34.133333 0l0 0q34.133333 0 34.133334 34.133334l0 101.290666q0 34.133333-34.133334 34.133334l0 0q-34.133333 0-34.133333-34.133334l0-101.290666q0-34.133333 34.133333-34.133334Z" fill="#FF7E00" p-id="19196"></path><path d="M315.221333 447.146667a12.8 12.8 0 0 1 0-25.6h51.2a12.8 12.8 0 1 1 0 25.6h-51.2z m136.533334-0.597334a12.8 12.8 0 0 1 0-25.6h51.2a12.8 12.8 0 0 1 0 25.6h-51.2z m136.533333-0.597333a12.8 12.8 0 0 1 0-25.6h51.2a12.8 12.8 0 0 1 0 25.6h-51.2zM315.221333 558.08a12.8 12.8 0 0 1 0-25.6h51.2a12.8 12.8 0 0 1 0 25.6h-51.2z m136.533334-0.597333a12.8 12.8 0 0 1 0-25.6h51.2a12.8 12.8 0 0 1 0 25.6h-51.2z m136.533333-0.597334a12.8 12.8 0 0 1 0-25.6h51.2a12.8 12.8 0 0 1 0 25.6h-51.2zM315.221333 660.48a12.8 12.8 0 0 1 0-25.6h51.2a12.8 12.8 0 0 1 0 25.6h-51.2z m136.533334-1.109333a12.8 12.8 0 0 1 0-25.6h51.2a12.8 12.8 0 0 1 0 25.6h-51.2z" fill="#FF7E00" p-id="19197"></path><path d="M710.826667 611.498667a170.666667 170.666667 0 1 0 170.666666 170.666666 171.178667 171.178667 0 0 0-170.666666-170.666666z m0 273.749333a102.4 102.4 0 1 1 102.4-102.4 102.826667 102.826667 0 0 1-102.4 102.4z" fill="" p-id="19198"></path></svg>