<?xml version="1.0" standalone="no"?><!DOCTYPE svg PUBLIC "-//W3C//DTD SVG 1.1//EN" "http://www.w3.org/Graphics/SVG/1.1/DTD/svg11.dtd"><svg t="1554999846603" class="icon" style="" viewBox="0 0 1554 1024" version="1.1" xmlns="http://www.w3.org/2000/svg" p-id="14280" xmlns:xlink="http://www.w3.org/1999/xlink" width="303.515625" height="200"><defs><style type="text/css"></style></defs><path d="M1234.615589 902.930286c-120.667429 64.091429-249.033143 97.956571-385.572572 107.794285-70.144 5.046857-140.251429 7.661714-209.737143 3.675429-162.029714-9.270857-321.024-34.706286-458.422857-131.108571C81.701303 813.677714 23.589303 718.427429 6.327589 597.723429c-12.361143-86.308571-8.393143-170.093714 28.050285-250.496C82.90816 240.146286 171.520731 176.914286 275.347017 132.736c112.256-47.780571 230.985143-70.491429 351.908572-83.456 128.329143-13.769143 256.64-27.026286 385.261714-37.961143C1128.320731 1.462857 1241.856731 2.249143 1352.083017 46.500571c93.549714 37.595429 149.961143 108.745143 175.945143 201.417143 38.674286 137.947429 30.884571 274.614857-33.737143 405.193143-5.723429 11.556571-7.131429 23.350857-7.094857 35.894857 0.146286 47.469714 0.109714 94.921143-0.237714 142.390857-0.073143 10.002286 2.761143 20.845714-5.449143 29.494858-13.403429-12.068571-10.386286-28.416-10.349714-43.410286 0.182857-92.708571 0.365714-185.380571-0.237715-278.070857-0.073143-12.342857 0.274286-24.722286-0.969143-37.046857-4.041143-40.32-16.438857-54.784-56.173714-61.622858-39.789714-6.838857-80.054857-5.485714-120.118857-2.56-11.483429 0.822857-22.326857 3.584-32.237714-4.461714-13.44-26.276571-6.162286-54.546286-7.442286-81.901714-2.139429-45.824-6.308571-50.779429-52.608-50.834286-175.780571-0.128-351.579429 0.036571-527.36-0.164571-17.28-0.018286-35.108571 2.596571-51.346286-6.436572-8.045714-11.648 2.413714-13.677714 9.252572-15.945143 12.891429-4.278857 26.532571-2.925714 39.917714-2.944 174.262857-0.091429 348.525714-0.036571 522.825143-0.054857 9.270857 0 18.56-0.073143 27.830857-0.329143 15.195429-0.420571 21.942857-6.582857 20.662857-23.076571-4.315429-55.734857-47.104-107.611429-102.070857-118.454857-49.609143-9.801143-100.388571-11.538286-150.710857-12.233143-122.697143-1.645714-245.430857-1.28-368.128-0.164571-48.347429 0.438857-96.713143 4.662857-144.859429 9.398857-64.420571 6.345143-102.4 43.392-117.467428 105.508571-4.388571 18.066286-8.630857 36.096-9.874286 54.710857-9.472 119.259429-8.978286 238.500571 0.603429 357.741715 2.249143 28.068571 9.782857 54.710857 20.242285 80.585142 17.152 42.386286 51.492571 62.976 94.354286 70.948572 28.306286 5.266286 56.923429 8.466286 85.961143 8.137143 55.606857-0.621714 111.250286-0.548571 166.857143 0.073143 13.842286 0.146286 29.494857-2.980571 39.076571 12.068571-4.150857 10.843429-14.171429 10.24-23.04 11.428571a96.969143 96.969143 0 0 1-21.430857 0.512c-56.868571-5.12-110.848-3.986286-139.922286 58.221715-2.852571 6.107429-10.093714 9.984-16.914285 12.690285-8.612571 3.657143-18.212571 2.742857-27.008 7.588572 120.265143 3.254857 240.585143 1.956571 360.850285 2.413714 75.52 1.609143 151.04 1.005714 229.686857 0.256-9.106286-9.325714-18.066286-5.522286-25.289142-8.082286a38.217143 38.217143 0 0 1-9.325715-2.870857c-26.934857-18.102857-42.258286-46.08-60.434285-71.588571-4.242286-5.942857-6.546286-13.074286 2.212571-18.157714 22.857143-7.862857 47.140571-5.924571 70.235429-6.308572 40.082286-0.694857 74.276571-20.571429 112.164571-27.136 6.710857 7.332571 7.881143 16.621714 7.369143 25.673143-1.956571 34.230857 10.093714 65.682286 18.322286 97.92" fill="#DAEDF5" p-id="14281"></path><path d="M1263.561874 432.164571c51.218286-4.498286 102.528-8.411429 153.728-0.932571 47.030857 6.875429 60.196571 21.851429 62.299429 71.899429 4.736 113.060571 3.163429 226.194286 1.792 339.291428-0.073143 6.162286 0.091429 12.306286 0.128 18.468572-4.352 26.368-20.187429 43.830857-45.787429 47.469714-67.163429 9.545143-134.601143 14.994286-201.106285-5.430857-25.965714-22.144-23.369143-53.156571-25.563429-82.633143-1.005714-13.348571-1.371429-26.733714-2.011429-40.100572a23.04 23.04 0 0 1-7.131428-16.694857c0.219429-65.901714-5.961143-131.730286-2.797714-197.577143 1.28-26.806857-0.64-53.741714 2.852571-80.384 4.937143-37.814857 30.336-58.715429 63.597714-53.376" fill="#0290C3" p-id="14282"></path><path d="M1263.561874 432.164571c-46.098286 13.696-53.540571 24.228571-56.356571 71.003429-5.522286 92.379429 2.139429 184.685714-0.182857 277.028571-55.881143 41.874286-121.709714 34.669714-185.490286 37.595429-24.850286 15.670857-53.668571 12.16-80.566857 14.226286-51.108571 3.949714-102.564571 1.590857-153.874286 1.024-11.190857-0.128-22.857143-0.365714-30.902857-10.422857-9.819429-8.484571-21.668571-4.681143-32.658286-5.193143-83.108571-3.949714-166.381714 5.138286-249.563428-5.632-56.356571-7.314286-96.457143-37.046857-116.608-90.605715-17.334857-46.134857-19.931429-94.299429-21.686857-142.043428-2.742857-76.105143-0.054857-152.429714-1.170286-228.626286-0.310857-20.955429 7.698286-40.356571 7.058286-61.001143 10.386286-8.502857 22.948571-8.283429 35.236571-8.338285 68.845714-0.292571 137.691429-0.365714 206.518857 0.054857 12.233143 0.073143 24.905143-0.365714 34.962286 8.832 118.418286 0.438857 236.854857 1.042286 355.291428 1.28 85.504 0.164571 171.008 0.420571 256.493715-0.694857 19.072-0.237714 27.757714 5.449143 30.683428 24.484571 5.961143 38.985143 1.609143 78.043429 2.816 117.028571" fill="#FEFEFE" p-id="14283"></path><path d="M618.277303 290.066286l-276.717714-0.548572c0.548571-35.620571 9.453714-69.485714 25.563428-100.809143 27.428571-53.248 76.854857-67.474286 131.785143-70.582857 202.825143-11.428571 405.686857-11.977143 608.493714-0.091428 107.794286 6.326857 134.272 68.882286 149.101715 150.546285 4.114286 22.619429-13.074286 16.091429-23.533715 16.182858-93.769143 0.676571-187.538286 0.768-281.289143 1.133714-102.016 0.365714-204.013714 0.786286-306.029714 1.426286-9.142857 0.036571-18.249143 1.792-27.373714 2.742857" fill="#0190C3" p-id="14284"></path><path d="M756.169874 822.619429c88.539429 2.816 176.950857-0.512 265.362286-4.827429l63.451429 79.36c-10.166857 11.757714-24.100571 9.874286-37.266286 9.874286-147.894857 0.182857-295.789714 1.810286-443.702857 0.877714-16.091429-0.109714-33.28 2.779429-46.738286-10.203429 31.561143-70.784 88.557714-86.564571 159.195429-74.642285 12.836571 2.176 26.441143-0.182857 39.698285-0.438857" fill="#018FC3" p-id="14285"></path><path d="M557.27616 897.700571l527.707429-0.548571-0.475429-0.146286c5.010286 4.882286 13.824 8.502857 11.648 16.64-2.450286 9.216-11.885714 5.522286-18.432 5.668572-61.696 1.462857-123.465143-2.340571-185.124571 2.102857-122.514286 0.237714-245.046857 0.603429-367.579429 0.530286-8.777143 0-22.637714 5.449143-21.796571-12.544 0.804571-17.554286 14.464-10.386286 23.204571-11.337143 10.166857-1.097143 20.553143-0.329143 30.848-0.365715" fill="#015499" p-id="14286"></path><path d="M892.599589 921.417143c46.774857-10.496 94.171429-2.011429 141.238857-4.608a396.361143 396.361143 0 0 1 43.337143 0c25.051429 1.371429 10.203429-11.264 7.314285-19.803429 11.245714-0.493714 22.491429-1.554286 33.682286-1.28 9.307429 0.219429 22.198857-3.858286 21.705143 13.110857-0.438857 14.537143-11.611429 11.776-20.187429 11.830858-75.702857 0.384-151.405714 0.530286-227.108571 0.731428" fill="#018FC3" p-id="14287"></path><path d="M1459.80416 649.508571c0 41.252571 1.188571 82.578286-0.329143 123.794286-1.517714 40.777143-13.750857 52.443429-53.668571 57.490286-42.166857 5.339429-84.297143 6.692571-126.409143-0.694857-24.704-4.315429-39.168-19.254857-39.862857-43.995429-2.377143-85.558857-10.24-171.081143-2.505143-256.731428 3.108571-34.249143 15.012571-47.963429 49.590857-51.510858 41.088-4.205714 82.523429-4.754286 123.648-0.438857 27.794286 2.944 44.946286 17.92 45.897143 48.384 1.334857 41.234286 4.022857 82.413714 6.107428 123.611429l-2.468571 0.073143" fill="#FDFEFE" p-id="14288"></path><path d="M1350.766446 892.525714c-15.853714 0.804571-22.930286-7.314286-23.094857-20.242285-0.146286-11.044571 5.814857-20.626286 17.627428-21.888 13.238857-1.408 21.449143 6.966857 23.113143 19.565714 1.792 13.586286-6.125714 20.790857-17.645714 22.564571" fill="#E9F5F9" p-id="14289"></path><path d="M1353.94816 451.218286c-20.388571 9.179429-41.033143 8.192-61.933714 2.121143 19.968-11.373714 41.014857-6.582857 61.933714-2.121143" fill="#8ACCE3" p-id="14290"></path><path d="M1146.094446 512.201143l-482.651429 0.731428c18.468571-38.473143 45.348571-69.888 79.981714-94.738285 22.308571 4.132571 23.460571 25.014857 31.890286 40.210285 4.150857 7.460571 4.205714 19.968 15.890286 19.145143 8.978286-0.64 10.002286-11.428571 13.696-18.304 1.444571-2.669714 2.925714-5.266286 4.937143-7.552 18.139429-2.157714 32.585143-10.166857 43.428571-25.325714 5.083429-7.131429 10.587429-15.890286 22.217143-11.904 11.373714 10.496 11.081143 25.892571 16.384 38.948571 5.174857 12.781714 11.830857 24.210286 26.934857 26.550858 15.670857 2.413714 24.466286-7.259429 31.762286-19.218286 4.242286-6.948571 8.246857-14.262857 16.694857-17.188572 7.149714-2.377143 14.317714-2.029714 21.211429 0.585143 23.405714 8.886857 44.397714 4.809143 63.652571-10.825143 5.558857-4.498286 11.52-9.033143 19.602286-6.217142l1.024 0.548571c21.339429 30.884571 47.945143 57.197714 73.325714 84.553143" fill="#007051" p-id="14291"></path><path d="M547.347017 465.737143c0.475429 52.077714-24.96 87.222857-63.049143 87.04-38.509714-0.182857-74.093714-39.917714-75.081143-83.858286-0.987429-45.019429 35.456-85.632 76.306286-84.992 36.516571 0.548571 61.385143 33.462857 61.824 81.828572" fill="#0190C3" p-id="14292"></path><path d="M1031.497874 600.630857c-31.890286 0-63.798857-0.365714-95.670857 0.164572-15.122286 0.237714-25.6-1.28-25.453714-20.992 0.128-17.865143 6.912-22.893714 23.808-22.729143a10466.742857 10466.742857 0 0 0 200.612571-0.036572c16.768-0.182857 23.826286 4.644571 23.954286 22.601143 0.182857 19.730286-10.276571 21.266286-25.398857 21.028572-33.938286-0.512-67.894857-0.182857-101.851429-0.182858v0.146286zM756.82816 668.617143c-31.945143 0-63.908571-0.713143-95.817143 0.274286-17.609143 0.548571-23.314286-6.144-23.222857-23.405715 0.128-17.334857 8.502857-20.352 23.113143-20.242285 65.938286 0.384 131.894857 0.493714 197.833143-0.091429 16.073143-0.146286 21.76 5.778286 21.723428 21.668571 0 15.762286-5.485714 22.198857-21.632 21.851429-33.993143-0.768-68.004571-0.237714-101.997714-0.237714v0.182857z" fill="#BADEED" p-id="14293"></path><path d="M758.857874 600.649143c-32.987429 0-65.974857-0.512-98.925714 0.237714-15.634286 0.365714-22.345143-4.809143-22.162286-21.211428 0.182857-15.323429 4.644571-22.418286 21.211429-22.290286 66.980571 0.530286 133.961143 0.493714 200.941714-0.164572 17.225143-0.146286 20.150857 8.265143 20.48 22.930286 0.384 17.005714-7.588571 20.973714-22.637714 20.681143-32.969143-0.621714-65.956571-0.182857-98.925714-0.182857" fill="#B9DEED" p-id="14294"></path><path d="M1036.270446 730.843429c-34.011429 0-68.022857-0.237714-102.034286 0.128-13.915429 0.128-23.990857-1.572571-23.588571-19.638858 0.365714-16.036571 8.96-17.481143 21.814857-18.432 66.742857-4.937143 133.558857-5.741714 200.411428-5.302857 14.592 0.091429 25.728 0.274286 26.093715 20.48 0.402286 21.156571-10.24 23.222857-26.843429 22.857143-31.945143-0.731429-63.908571-0.219429-95.853714-0.219428v0.128zM1034.551589 625.243429c32.950857 0 65.92 0.036571 98.889142 0 12.690286-0.036571 24.886857-1.188571 25.124572 17.974857 0.219429 17.737143-9.252571 19.657143-23.405714 19.931428-65.755429 1.243429-131.346286 7.734857-197.229715 5.467429-15.817143-0.548571-27.629714-0.420571-27.611428-22.198857 0-22.765714 13.458286-21.211429 28.416-21.12 31.945143 0.219429 63.872 0.073143 95.817143 0.073143v-0.128z" fill="#B8DEEC" p-id="14295"></path><path d="M758.675017 693.211429c32.859429 0 65.718857 0.310857 98.56-0.146286 14.354286-0.219429 23.588571 2.523429 23.131429 20.059428-0.420571 16.182857-9.435429 17.92-22.125715 17.883429-65.718857-0.164571-131.437714-0.182857-197.156571 0.219429-14.445714 0.091429-23.387429-2.651429-23.04-20.114286 0.365714-16.310857 9.380571-17.938286 22.034286-17.828572 32.877714 0.292571 65.718857 0.091429 98.596571 0.091429v-0.182857z" fill="#B7DDEC" p-id="14296"></path><path d="M967.753874 446.098286c-3.876571 7.204571-7.881143 14.317714-11.629714 21.577143-7.058286 13.714286-16.822857 22.491429-33.554286 22.052571-17.883429-0.438857-29.019429-10.642286-35.035428-25.344-6.528-15.908571-10.002286-33.097143-14.811429-49.737143-1.426286-1.609143-1.883429-3.218286-1.371428-4.809143 0.493714-1.590857 0.987429-2.395429 1.462857-2.395428 31.853714-37.577143 43.008-36.937143 68.918857 3.84 6.985143 10.971429 12.361143 23.350857 24.905143 29.677714 2.084571 0.731429 2.925714 1.755429 2.578285 3.035429-0.384 1.408-0.877714 2.102857-1.462857 2.102857" fill="#0290C3" p-id="14297"></path><path d="M967.753874 446.098286a34.816 34.816 0 0 1-1.097143-5.138286c6.692571-16 12.525714-32.457143 20.278858-47.926857 15.616-31.177143 40.155429-33.353143 62.537142-6.144 9.892571 11.995429 17.024 25.6 22.253715 40.228571-29.769143 33.097143-64.877714 36.900571-103.972572 18.980572" fill="#02C369" p-id="14298"></path><path d="M744.28416 420.150857l-80.859429 92.8c-8.594286 0.128-19.638857 5.540571-24.740571-3.620571-4.187429-7.497143 3.968-15.177143 8.539429-21.705143 14.665143-20.900571 30.902857-40.777143 44.617142-62.317714 14.646857-23.021714 30.774857-28.434286 52.388572-9.910858 1.426286 1.042286 1.901714 2.084571 1.462857 3.163429-0.475429 1.060571-0.932571 1.590857-1.408 1.590857" fill="#03C369" p-id="14299"></path><path d="M486.62016 588.068571c-22.601143 0-45.202286 0.109714-67.821714-0.036571-8.356571-0.054857-18.029714-0.493714-18.852572-11.154286-0.859429-10.971429 8.539429-12.891429 17.042286-12.946285 45.220571-0.237714 90.422857-0.201143 135.643429-0.146286 8.594286 0.018286 17.298286 0.914286 16.749714 12.726857-0.566857 11.757714-9.764571 11.410286-18.011429 11.465143-21.577143 0.128-43.154286 0.036571-64.731428 0.073143" fill="#C4E3EF" p-id="14300"></path><path d="M744.28416 420.150857a21.430857 21.430857 0 0 1-0.073143-4.754286c35.163429-18.706286 35.766857-18.413714 68.388572 32.731429 1.682286 0.969143 2.450286 2.157714 2.285714 3.547429-0.182857 1.499429-0.493714 2.249143-0.932572 2.249142-0.822857 2.962286-1.481143 5.997714-2.505142 8.905143-4.022857 11.593143-6.857143 27.300571-20.114286 28.470857-14.811429 1.28-16.621714-15.835429-21.540572-26.368-7.332571-15.652571-11.044571-33.206857-25.508571-44.781714" fill="#0490C2" p-id="14301"></path><path d="M813.952731 453.924571a21.083429 21.083429 0 0 1-1.353142-5.796571c7.113143-13.275429 13.220571-27.245714 21.540571-39.698286 11.684571-17.481143 25.344-18.340571 38.692571-0.987428l-0.091428 7.222857c-9.051429 10.624-18.194286 21.193143-27.136 31.926857-8.758857 10.550857-18.761143 14.994286-31.652572 7.332571" fill="#06C46B" p-id="14302"></path><path d="M1146.094446 512.201143c-35.785143-18.358857-60.708571-46.153143-73.344-84.571429 37.997714 13.659429 56.978286 46.902857 78.848 77.037715 2.377143 3.291429 0.073143 7.68-5.504 7.533714" fill="#0992C2" p-id="14303"></path><path d="M486.309303 631.533714c-12.306286 0-24.630857 0.109714-36.937143-0.054857-6.235429-0.091429-13.257143-0.585143-13.714286-8.704-0.438857-8.301714 6.436571-9.472 12.763429-9.508571 25.654857-0.182857 51.309714-0.182857 76.982857 0.036571 6.345143 0.054857 13.019429 1.554286 12.050286 10.038857-0.932571 8.192-8.118857 8.009143-14.189715 8.118857-12.306286 0.219429-24.630857 0.054857-36.937142 0.073143" fill="#B8DDEC" p-id="14304"></path><path d="M599.059017 235.52c-15.177143-3.638857-26.989714-10.587429-28.105143-25.892571-1.188571-16.310857 11.995429-20.809143 24.813715-20.754286 13.019429 0.054857 24.521143 5.083429 24.374857 21.540571-0.109714 14.72-8.448 22.125714-21.083429 25.124572" fill="#F9FCFD" p-id="14305"></path><path d="M450.944731 190.354286c14.445714 1.097143 24.758857 8.283429 24.594286 22.326857-0.182857 14.445714-11.940571 21.101714-25.161143 21.357714-14.006857 0.274286-23.113143-7.058286-22.820571-22.418286 0.292571-15.506286 9.490286-21.302857 23.405714-21.284571" fill="#F1F8FB" p-id="14306"></path><path d="M520.759589 188.525714c12.434286 2.688 25.380571 6.985143 25.819428 23.771429 0.365714 14.628571-10.166857 18.834286-22.564571 19.017143-13.897143 0.201143-24.630857-5.284571-24.868572-20.662857-0.219429-12.726857 6.765714-21.065143 21.613715-22.125715" fill="#F9FCFD" p-id="14307"></path><path d="M1400.521874 593.700571a3.401143 3.401143 0 0 1 3.529143-0.566857c15.561143-3.712 29.330286-2.267429 38.217143 13.275429 6.820571 28.708571-2.651429 39.771429-33.682286 37.778286a870.308571 870.308571 0 0 0-122.88 0.548571c-32 2.486857-39.478857-9.801143-32.877714-37.686857 18.596571-10.605714 32.182857-29.732571 55.296-32.713143 1.846857 0.932571 3.785143 1.938286 4.937143 3.602286 34.797714 50.230857 40.045714 51.181714 87.460571 15.762285" fill="#017052" p-id="14308"></path><path d="M1400.521874 593.700571c-7.862857 20.973714-20.589714 34.230857-45.44 32.365715-23.862857-1.828571-36.864-14.354286-42.496-36.681143-1.206857-4.827429-4.278857-9.161143-6.491428-13.714286-1.554286-1.243429-2.011429-2.432-1.426286-3.547428 0.548571-1.097143 1.115429-1.645714 1.682286-1.645715 31.36-27.611429 41.362286-27.373714 69.229714 0.749715 7.862857 7.936 16.603429 14.994286 24.941714 22.473142" fill="#0290C2" p-id="14309"></path><path d="M1409.097874 758.656c-37.467429 10.276571-75.922286 9.453714-114.358857 8.649143-6.290286-0.146286-12.745143-1.609143-14.848-8.448-2.066286-6.729143 3.053714-9.142857 8.484572-9.179429 40.155429-0.182857 80.310857-0.091429 120.466285-0.091428l0.274286 9.069714" fill="#BEE0EE" p-id="14310"></path><path d="M1280.366446 713.088c38.637714-3.510857 77.952 1.828571 116.297143-6.436571 5.796571-1.243429 13.056 0.054857 13.988571 8.283428 0.768 6.528-4.187429 9.124571-9.691429 9.142857-40.283429 0.182857-80.548571 0.091429-120.813714 0.091429l0.219429-11.081143" fill="#BBDFED" p-id="14311"></path><path d="M1306.33216 570.477714a20.114286 20.114286 0 0 1-0.237714 5.174857c-17.353143 11.154286-28.434286 32.950857-53.266286 31.396572-1.645714-46.939429 9.307429-54.418286 53.522286-36.571429" fill="#06C26B" p-id="14312"></path><path d="M1442.249874 606.409143l-38.217143-13.275429c7.314286-17.536 13.494857-35.84 32.438858-47.213714 7.862857 20.388571 5.76 40.557714 5.778285 60.489143" fill="#17C875" p-id="14313"></path></svg>