<?xml version="1.0" standalone="no"?><!DOCTYPE svg PUBLIC "-//W3C//DTD SVG 1.1//EN" "http://www.w3.org/Graphics/SVG/1.1/DTD/svg11.dtd"><svg t="1554995036412" class="icon" style="" viewBox="0 0 1024 1024" version="1.1" xmlns="http://www.w3.org/2000/svg" p-id="8779" xmlns:xlink="http://www.w3.org/1999/xlink" width="200" height="200"><defs><style type="text/css"></style></defs><path d="M266.5472 297.856h-0.0768 0.0768z" fill="#F5F5F5" p-id="8780"></path><path d="M793.4976 532.3776H737.024l-17.664 197.12h74.1376zM719.36 729.4976L692.9664 1024h100.5312V729.4976z" fill="#3AAEDA" p-id="8781"></path><path d="M719.3856 729.4976l17.664-197.12h-145.9968l-101.1712 272.3584 75.2128-75.2384z" fill="#3AAEDA" p-id="8782"></path><path d="M565.0944 729.4976l-75.2128 75.2384-78.2848 210.688V1024H692.992l26.3936-294.5024z" fill="#299DC1" p-id="8783"></path><path d="M227.9168 532.3776H25.3952V1024h245.2224l101.9904-102.016-55.6032-149.7344zM345.8304 450.8416c2.3552 0.6656 4.6592 1.5104 7.04 2.1248 1.4592 0.384 2.7904 1.0496 4.2752 1.3824a229.5296 229.5296 0 0 0 52.3264 6.528c0.7168 0 1.408-0.128 2.1504-0.1536V0.1024c-0.7168 0-1.4336-0.1024-2.176-0.1024-5.632 0-10.9056 1.2544-16.4608 1.6384-2.3552 0.1792-4.6592 0.5888-6.9888 0.8448C269.952 14.3616 179.0208 111.1552 179.0208 230.4c0 105.0368 70.7072 192.7168 166.8096 220.4416z" fill="#79C3E0" p-id="8784"></path><path d="M411.5968 1024v-8.576l-2.1248 5.76-36.864-99.2L270.6176 1024z" fill="#63B1C9" p-id="8785"></path><path d="M639.8976 230.4256c0-126.5408-102.0416-229.1456-228.2752-230.3232v460.6208a233.1648 233.1648 0 0 0 50.1504-6.3744c101.9648-23.7568 178.1248-114.7136 178.1248-223.9232z" fill="#3AAEDA" p-id="8786"></path><path d="M411.5968 540.1344h-73.7792l-5.504 61.3376 79.2832 189.7984zM534.8096 540.1344h-123.2128v251.136l3.7376 8.9344zM337.8176 540.1344h-31.1552l25.6256 61.3376z" fill="#F8FBFF" p-id="8787"></path><path d="M450.7392 723.1232l32.6656-71.04 51.4048-111.9488h-123.2128v104.5504h9.1392v54.4h-9.1392v92.1856l3.7376 8.9344z" fill="#CCCCCC" p-id="8788"></path><path d="M411.5968 699.0848h-38.528l38.528 92.1856zM350.3616 644.6848h61.2352v-104.5504h-104.9344l25.6512 61.3376z" fill="#F8FBFF" p-id="8789"></path><path d="M350.3616 644.6848l22.7072 54.4h38.528v-54.4h-61.2352z" fill="#DD394E" p-id="8790"></path><path d="M411.5968 644.6848h9.1136v54.4h-9.1136v-54.4z" fill="#B8141B" p-id="8791"></path><path d="M811.0336 677.4272h-58.368l-19.2512 19.2768v31.9744h19.2512v-31.9744h58.368v31.9744h19.2512v-31.9744z" fill="#E17C1F" p-id="8792"></path><path d="M781.8496 871.8336H565.0944v136.96c0 6.784 5.5552 12.3392 12.3648 12.3392h408.7552a12.3904 12.3904 0 0 0 12.3648-12.3392v-136.96h-216.7296z" fill="#C2630F" p-id="8793"></path><path d="M565.12 725.632h195.7632v3.8656h-195.7632zM803.6096 725.632h194.9952v3.8656h-194.9952z" fill="#EF9552" p-id="8794"></path><path d="M760.8832 725.632h42.7264v3.8656h-42.7264z" fill="#E5802E" p-id="8795"></path><path d="M760.8576 858.4704h20.992v13.3632h-20.992z" fill="#A35C16" p-id="8796"></path><path d="M781.8496 858.4704h21.76v13.3632h-21.76z" fill="#D2D1C1" p-id="8797"></path><path d="M760.8832 729.4976h-195.7632v142.3616h195.7632v-5.248h20.9664v5.248H998.6048v-142.3616h-194.9952z" fill="#CE6D17" p-id="8798"></path><path d="M760.8576 854.8608h-9.9072v16.9728h62.5664v-16.9728h-9.9072z" fill="#E5802E" p-id="8799"></path><path d="M750.9504 871.8336v4.6336h62.5664v-4.6336h-31.6672z" fill="#CE6D17" p-id="8800"></path></svg>